<?xml version="1.0" encoding="utf-8"?>
<!-- Generator: Adobe Illustrator 16.0.4, SVG Export Plug-In . SVG Version: 6.00 Build 0)  -->
<!DOCTYPE svg PUBLIC "-//W3C//DTD SVG 1.1//EN" "http://www.w3.org/Graphics/SVG/1.1/DTD/svg11.dtd">
<svg version="1.1" id="Calque_1" xmlns="http://www.w3.org/2000/svg" xmlns:xlink="http://www.w3.org/1999/xlink" x="0px" y="0px"
	 width="144px" height="115.653px" viewBox="0 0 144 115.653" enable-background="new 0 0 144 115.653" xml:space="preserve">
<g>
	<g>
		<circle fill="#00B8DB" cx="71.942" cy="29.322" r="6.615"/>
		<g>
			<path fill="#009BBC" d="M59.46,29.322c0-1.645-1.336-2.98-2.979-2.98c-1.644,0-2.981,1.336-2.981,2.98s1.337,2.982,2.981,2.982
				C58.124,32.305,59.46,30.967,59.46,29.322z"/>
			<path fill="#009BBC" d="M87.405,26.342c-1.643,0-2.979,1.336-2.979,2.98s1.337,2.982,2.979,2.982
				c1.646,0,2.983-1.338,2.983-2.982S89.05,26.342,87.405,26.342z"/>
			<path fill="#009BBC" d="M61.009,37.275c-0.796,0-1.545,0.311-2.108,0.873c-0.563,0.562-0.873,1.312-0.873,2.109
				c0,0.795,0.31,1.545,0.873,2.107c0.563,0.561,1.312,0.871,2.108,0.871c0.796,0,1.545-0.311,2.108-0.871
				c0.564-0.562,0.874-1.312,0.874-2.107c0-0.797-0.31-1.547-0.874-2.109C62.554,37.586,61.805,37.275,61.009,37.275z"/>
			<path fill="#009BBC" d="M82.876,21.371c0.797,0,1.545-0.312,2.108-0.875c0.564-0.562,0.875-1.312,0.875-2.107
				c0-0.797-0.311-1.545-0.875-2.109c-0.562-0.561-1.311-0.871-2.107-0.871c-0.797,0-1.545,0.311-2.108,0.871
				c-0.564,0.564-0.875,1.312-0.875,2.109c0,0.795,0.311,1.545,0.875,2.107C81.332,21.059,82.079,21.371,82.876,21.371z"/>
			<path fill="#009BBC" d="M61.009,21.371c0.796,0,1.545-0.312,2.108-0.875c1.162-1.162,1.162-3.053,0-4.217
				c-0.563-0.561-1.312-0.871-2.107-0.871c-0.797,0-1.546,0.311-2.109,0.871c-0.563,0.564-0.873,1.312-0.873,2.109
				c0,0.795,0.31,1.545,0.873,2.107C59.464,21.059,60.212,21.371,61.009,21.371z"/>
			<path fill="#009BBC" d="M82.876,37.275c-0.797,0-1.544,0.311-2.107,0.873c-0.564,0.562-0.875,1.312-0.875,2.109
				c0,0.795,0.311,1.545,0.875,2.107c0.563,0.562,1.31,0.871,2.107,0.871c0.797,0,1.545-0.311,2.108-0.871
				c0.564-0.562,0.875-1.312,0.875-2.109c0-0.795-0.311-1.545-0.875-2.107C84.422,37.586,83.673,37.275,82.876,37.275z"/>
			<circle fill="#009BBC" cx="71.942" cy="13.859" r="2.98"/>
			<path fill="#009BBC" d="M71.942,41.805c-1.643,0-2.98,1.338-2.98,2.98c0,1.645,1.337,2.98,2.98,2.98
				c1.644,0,2.981-1.336,2.981-2.98C74.924,43.143,73.586,41.805,71.942,41.805z"/>
		</g>
		<g>
			<circle fill="#0085A1" cx="97.133" cy="29.322" r="1.684"/>
			<circle fill="#0085A1" cx="71.915" cy="54.5" r="1.684"/>
			<circle fill="#0085A1" cx="71.935" cy="4.096" r="1.684"/>
			<path fill="#0085A1" d="M88.483,45.85c-0.318,0.316-0.492,0.74-0.492,1.191c-0.001,0.449,0.173,0.871,0.491,1.189
				c0.319,0.318,0.742,0.494,1.192,0.494c0.451-0.002,0.874-0.176,1.192-0.494c0.317-0.316,0.493-0.74,0.493-1.191
				c0-0.449-0.175-0.871-0.493-1.189c-0.318-0.318-0.742-0.494-1.192-0.492C89.225,45.355,88.801,45.531,88.483,45.85z"/>
			<path fill="#0085A1" d="M88.515,10.357c-0.318,0.318-0.493,0.74-0.494,1.191c0,0.449,0.175,0.873,0.494,1.191
				c0.318,0.318,0.74,0.492,1.19,0.494c0.452-0.002,0.874-0.176,1.192-0.494c0.318-0.318,0.493-0.742,0.493-1.191
				c-0.001-0.449-0.176-0.873-0.493-1.189c-0.319-0.32-0.742-0.494-1.192-0.494C89.256,9.863,88.833,10.039,88.515,10.357z"/>
			<path fill="#0085A1" d="M95.199,37.234c-0.242-0.01-0.478,0.033-0.701,0.127c-0.61,0.252-1.018,0.84-1.039,1.5
				c-0.031,0.928,0.699,1.707,1.626,1.738c0.243,0.01,0.479-0.035,0.701-0.127c0.608-0.252,1.018-0.842,1.039-1.5
				C96.856,38.045,96.126,37.266,95.199,37.234z"/>
			<path fill="#0085A1" d="M81.475,7.807c0.242,0.008,0.479-0.035,0.701-0.127c0.61-0.254,1.016-0.842,1.039-1.502
				c0.016-0.447-0.146-0.877-0.453-1.205c-0.308-0.328-0.723-0.52-1.172-0.533c-0.243-0.008-0.479,0.033-0.701,0.127
				c-0.608,0.252-1.017,0.84-1.04,1.5C79.819,6.994,80.549,7.775,81.475,7.807z"/>
			<path fill="#0085A1" d="M80.894,50.99c-0.187,0.078-0.357,0.188-0.504,0.326c-0.329,0.307-0.519,0.725-0.534,1.174
				c-0.015,0.451,0.147,0.879,0.455,1.207c0.477,0.508,1.23,0.672,1.874,0.406c0.187-0.078,0.356-0.188,0.506-0.326
				c0.677-0.637,0.713-1.703,0.079-2.381C82.291,50.887,81.538,50.725,80.894,50.99z"/>
			<path fill="#0085A1" d="M95.816,21.246c0.187-0.078,0.358-0.186,0.507-0.324c0.678-0.637,0.712-1.703,0.079-2.381
				c-0.477-0.51-1.229-0.674-1.874-0.406c-0.188,0.078-0.358,0.188-0.505,0.326c-0.678,0.635-0.714,1.701-0.08,2.381
				C94.419,21.352,95.172,21.514,95.816,21.246z"/>
			<circle fill="#0085A1" cx="46.729" cy="29.322" r="1.684"/>
			<path fill="#0085A1" d="M55.379,45.85c0.318,0.316,0.492,0.74,0.492,1.191c0.001,0.449-0.173,0.871-0.491,1.189
				c-0.319,0.318-0.742,0.494-1.191,0.494c-0.451-0.002-0.874-0.176-1.192-0.494c-0.318-0.316-0.494-0.74-0.494-1.191
				c0-0.449,0.175-0.871,0.494-1.189c0.318-0.318,0.742-0.494,1.192-0.492C54.638,45.355,55.062,45.531,55.379,45.85z"/>
			<path fill="#0085A1" d="M55.348,10.357c0.318,0.318,0.493,0.74,0.494,1.191c0,0.449-0.175,0.873-0.494,1.191
				c-0.317,0.318-0.74,0.492-1.19,0.494c-0.452-0.002-0.874-0.176-1.192-0.494c-0.318-0.318-0.494-0.742-0.493-1.191
				c0-0.449,0.175-0.873,0.493-1.189c0.318-0.32,0.742-0.494,1.192-0.494C54.606,9.863,55.03,10.039,55.348,10.357z"/>
			<path fill="#0085A1" d="M48.664,37.234c0.242-0.01,0.479,0.033,0.702,0.127c0.609,0.252,1.017,0.84,1.038,1.5
				c0.031,0.928-0.699,1.707-1.626,1.738c-0.243,0.01-0.479-0.035-0.701-0.127c-0.609-0.252-1.018-0.842-1.04-1.5
				C47.007,38.045,47.736,37.266,48.664,37.234z"/>
			<path fill="#0085A1" d="M62.388,7.807c-0.242,0.008-0.479-0.035-0.7-0.127c-0.61-0.254-1.017-0.842-1.039-1.502
				c-0.016-0.447,0.145-0.877,0.452-1.205c0.308-0.328,0.723-0.52,1.172-0.533c0.243-0.008,0.479,0.033,0.701,0.127
				c0.608,0.252,1.018,0.84,1.04,1.5C64.044,6.994,63.314,7.775,62.388,7.807z"/>
			<path fill="#0085A1" d="M62.969,50.99c0.187,0.078,0.357,0.188,0.504,0.326c0.33,0.307,0.519,0.725,0.535,1.174
				c0.015,0.451-0.146,0.879-0.455,1.207c-0.477,0.508-1.23,0.672-1.875,0.406c-0.187-0.078-0.356-0.188-0.506-0.326
				c-0.677-0.637-0.713-1.703-0.078-2.381C61.572,50.887,62.325,50.725,62.969,50.99z"/>
			<path fill="#0085A1" d="M48.047,21.246c-0.187-0.078-0.358-0.186-0.507-0.324c-0.677-0.637-0.712-1.703-0.079-2.381
				c0.477-0.51,1.23-0.674,1.875-0.406c0.188,0.078,0.358,0.188,0.505,0.326c0.677,0.635,0.714,1.701,0.079,2.381
				C49.444,21.352,48.691,21.514,48.047,21.246z"/>
		</g>
	</g>
	<g>
		<g>
			<path fill="#0085A1" d="M9.127,94.967c2.056,0,3.787,0.375,4.977,0.889v3.342c-2.197-0.889-3.551-1.121-4.977-1.121
				c-2.828,0-3.81,2.686-3.81,6.029c0,3.34,0.981,6.029,3.81,6.029c1.426,0,2.78-0.236,4.977-1.123v3.342
				c-1.19,0.514-2.921,0.889-4.977,0.889c-5.397,0-7.127-4.16-7.127-9.137C2,99.127,3.73,94.967,9.127,94.967z"/>
			<path fill="#0085A1" d="M23.383,113.242c-5.981,0-6.8-4.559-6.8-9.137c0-4.582,0.818-9.139,6.8-9.139
				c6.006,0,6.8,4.557,6.8,9.139C30.183,108.684,29.389,113.242,23.383,113.242z M25.235,94.084l-1.725-1.102l-2.106,1.102h-2.243
				l3.111-2.25h2.478l2.729,2.25H25.235z M23.383,98.076c-3.038,0-3.481,2.826-3.481,6.029c0,3.199,0.444,6.029,3.481,6.029
				c3.039,0,3.482-2.83,3.482-6.029C26.866,100.902,26.422,98.076,23.383,98.076z"/>
			<path fill="#0085A1" d="M39.204,98.449v14.418h-3.249V98.449h-4.394v-3.107h12.035v3.107H39.204z"/>
			<path fill="#0085A1" d="M56.146,105.365h-6.962v4.395h7.688v3.107H45.959V95.342h10.913v3.107h-7.688v3.809h6.962V105.365z"/>
			<path fill="#0085A1" d="M64.284,112.867V95.342h5.188c5.864,0,7.524,3.785,7.524,8.764c0,4.977-1.66,8.762-7.524,8.762H64.284z
				 M67.508,109.76h2.034c3.153,0,4.111-2.359,4.111-5.654s-0.958-5.656-4.111-5.656h-2.034V109.76z"/>
			<path fill="#0085A1" d="M79.078,101.184c0,0,1.146-2.338,0.678-5.842h3.073c-0.095,3.621-2.454,5.842-2.454,5.842H79.078z"/>
			<path fill="#0085A1" d="M81.492,112.867l6.238-17.9h2.244l6.215,17.9h-3.481l-1.472-4.439h-4.837l-1.402,4.439H81.492z
				 M88.853,100.785l-1.473,4.58h2.897L88.853,100.785z"/>
			<path fill="#0085A1" d="M97.502,112.867v-2.08l8.225-12.338h-7.804v-3.107h12.221v2.08l-8.225,12.338h8.529v3.107H97.502z"/>
			<path fill="#0085A1" d="M122.415,106.908V95.342h3.225v11.848c0,5.211-4.277,6.053-6.474,6.053s-6.473-0.842-6.473-6.053V95.342
				h3.224v11.566c0,2.945,2.128,3.203,3.249,3.203C120.289,110.111,122.415,109.854,122.415,106.908z"/>
			<path fill="#0085A1" d="M131.929,112.867h-3.226V95.342h5.819c4.627,0,6.076,2.031,6.076,5.279c0,2.223-0.631,3.834-2.571,4.697
				c0.351,0.75,0.794,1.52,1.216,2.289c0.84,1.59,2.032,3.881,2.757,5.26h-3.903l-3.388-6.916h-2.78V112.867z M131.929,102.844
				h2.898c2.055,0,2.359-0.982,2.359-2.223c0-1.213-0.305-2.172-2.359-2.172h-2.898V102.844z"/>
		</g>
		<g>
			<path fill="#231F20" d="M15.869,83.182c0,4.471-2.113,5.367-5.521,5.367c-3.409,0-5.521-0.896-5.521-5.367V69.904H3.465v13.305
				c0,5.895,3.678,6.65,6.883,6.65s6.883-0.756,6.883-6.65V69.904h-1.362V83.182z"/>
			<polygon fill="#231F20" points="33.279,86.713 22.082,69.904 21.135,69.904 21.135,89.73 22.548,89.73 22.498,72.924 
				33.696,89.73 34.644,89.73 34.644,69.904 33.23,69.904 			"/>
			<rect x="39.24" y="69.904" fill="#231F20" width="1.387" height="19.826"/>
			<polygon fill="#231F20" points="51.438,87.297 45.452,69.904 43.952,69.904 50.956,89.859 51.921,89.859 58.926,69.904 
				57.427,69.904 			"/>
			<polygon fill="#231F20" points="61.686,89.73 72.935,89.73 72.935,88.422 63.073,88.422 63.073,80.102 71.984,80.102 
				71.984,78.816 63.073,78.816 63.073,71.215 72.935,71.215 72.935,69.904 61.686,69.904 			"/>
			<path fill="#231F20" d="M89.062,75.375c0-3.283-1.043-5.471-6.138-5.471h-6.344V89.73h1.388v-8.885h4.956
				c0.27,0,0.529,0,0.785-0.014l4.643,8.898h1.644l-4.864-9.057C88.576,80.035,89.062,77.756,89.062,75.375z M87.676,75.375
				c0,2.635-0.715,4.162-4.366,4.162h-5.341v-8.322h5.341C86.961,71.215,87.676,72.74,87.676,75.375z"/>
			<path fill="#231F20" d="M98.57,78.818c-4.141-0.463-5.192-0.893-5.192-3.752c0-1.709,0.538-3.98,5.187-3.98
				c1.868,0,3.079,0.203,4.627,0.779l0.381,0.141v-1.395l-0.177-0.07c-1.286-0.516-2.867-0.764-4.831-0.764
				c-5.412,0-6.548,2.863-6.548,5.264c0,3.918,1.899,4.541,6.234,5.031c4.38,0.506,5.04,1.039,5.04,4.061
				c0,2.973-1.907,4.416-5.83,4.416c-2.362,0-3.885-0.445-5.064-0.881l-0.38-0.141v1.369l0.178,0.07
				c1.264,0.5,3.565,0.893,5.24,0.893c2.705,0,7.243-0.744,7.243-5.727C104.678,79.705,102.47,79.246,98.57,78.818z"/>
			<rect x="108.736" y="69.904" fill="#231F20" width="1.386" height="19.826"/>
			<polygon fill="#231F20" points="113.692,71.189 119.29,71.189 119.29,89.73 120.677,89.73 120.677,71.189 126.276,71.189 
				126.276,69.904 113.692,69.904 			"/>
			<polygon fill="#231F20" points="139.053,65.574 136.777,65.574 133.52,68.5 134.809,68.5 			"/>
			<polygon fill="#231F20" points="140.529,71.215 140.529,69.904 129.282,69.904 129.282,89.73 140.529,89.73 140.529,88.422 
				130.667,88.422 130.667,80.102 139.579,80.102 139.579,78.816 130.667,78.816 130.667,71.215 			"/>
		</g>
	</g>
</g>
</svg>
